<svg xmlns="http://www.w3.org/2000/svg" xmlns:xlink="http://www.w3.org/1999/xlink"><defs><symbol viewBox="0 0 33.062 33.062" id="cloud"><path d="M25.615 26.608H6.442A6.449 6.449 0 010 20.167a6.45 6.45 0 016.294-6.44 10.046 10.046 0 019.67-7.274c3.738 0 7.104 2.026 8.869 5.311.28-.031.534-.046.781-.046 4.106 0 7.446 3.339 7.446 7.443.002 4.107-3.339 7.447-7.445 7.447zM6.442 14.726A5.448 5.448 0 001 20.167c0 3 2.441 5.44 5.442 5.44h19.173a6.453 6.453 0 006.446-6.446c0-3.553-2.892-6.443-6.446-6.443a6.56 6.56 0 00-.991.083.502.502 0 01-.522-.273c-1.544-3.129-4.663-5.074-8.138-5.074a9.049 9.049 0 00-8.804 6.904.52.52 0 01-.498.38l-.22-.012z" /><path d="M25.615 26.608a.5.5 0 010-1 6.453 6.453 0 006.446-6.446c0-3.553-2.892-6.443-6.446-6.443a6.45 6.45 0 00-4.858 2.208.5.5 0 11-.753-.657 7.443 7.443 0 015.611-2.55c4.106 0 7.446 3.339 7.446 7.443.001 4.105-3.34 7.445-7.446 7.445z" /></symbol><symbol viewBox="0 0 51.636 51.636" id="location"><path d="M51.353.914a.999.999 0 00-1.135-.213L.583 23.481a1 1 0 00.252 1.895l22.263 3.731 2.545 21.038a1.002 1.002 0 001.889.324l24-48.415a1 1 0 00-.179-1.14z" /></symbol><symbol viewBox="0 0 256 256" id="partly"><path d="M156 74a73.743 73.743 0 00-21.175 3.1 53.75 53.75 0 00-11.12-13.647L134.2 48.468a6 6 0 00-9.83-6.883l-10.494 14.986a53.893 53.893 0 00-29.288-6.468l-3.182-18.05a6 6 0 10-11.818 2.084l3.182 18.045a53.45 53.45 0 00-25.29 16.106l-15.012-10.51a6 6 0 00-6.883 9.83l15.01 10.51a53.45 53.45 0 00-6.494 29.27l-18.047 3.182a6 6 0 001.035 11.91 6.098 6.098 0 001.049-.091l18.046-3.182a53.937 53.937 0 007.082 15.047A49.967 49.967 0 0076 222h80a74 74 0 000-148zM46.66 111.443c-.008-.057-.011-.115-.021-.172-.012-.063-.03-.123-.043-.186a41.714 41.714 0 016.894-31.047c.036-.048.076-.09.11-.139.04-.055.07-.112.106-.168a41.71 41.71 0 0126.87-17.08c.043-.007.086-.004.13-.011.066-.012.128-.031.194-.045a41.917 41.917 0 0130.67 6.608 6.034 6.034 0 00.507.398c.137.096.283.168.425.251A41.8 41.8 0 01123.5 81.54a74.406 74.406 0 00-37.178 41.527 50.003 50.003 0 00-33.113 4.452 42.012 42.012 0 01-6.549-16.076zM156 210H76a38 38 0 117.2-75.32A74.215 74.215 0 0082 148a6 6 0 0012 0 62 62 0 1162 62z" /></symbol><symbol viewBox="0 0 516.301 516.301" id="rain"><path d="M124.4 363.3s-47.8 45.9-47.8 74.602c0 21 15.3 40.199 47.8 40.199s47.8-21 47.8-40.199c0-28.702-47.8-74.602-47.8-74.602zm0 95.701c-15.3 0-28.7-5.701-28.7-23 0-13.4 28.7-44 28.7-44s28.7 30.6 28.7 44c0 15.299-13.4 23-28.7 23zM392.101 363.3S344.3 409.2 344.3 437.902c0 21 15.301 40.199 47.801 40.199s47.8-21 47.8-40.199c-.001-28.702-47.8-74.602-47.8-74.602zm0 95.701c-15.301 0-28.7-5.701-28.7-23 0-13.4 28.7-44 28.7-44s28.699 30.6 28.699 44c0 15.299-13.4 23-28.699 23zM459.101 160.601c0-57.4-47.801-103.3-105.2-103.3-21 0-38.2 5.7-55.5 15.3-24.9-32.5-63.1-53.5-107.1-53.5-74.6 0-133.9 59.3-133.9 133.9v7.6c-34.4 15.3-57.4 47.8-57.4 88 0 53.5 42.1 95.599 95.6 95.599h325.1c53.5 0 95.6-42.1 95.6-95.599.199-40.2-22.801-72.7-57.2-88zm-38.301 164.5H95.7c-42.1 0-76.5-34.4-76.5-76.5 0-36.301 24.9-66.9 59.3-74.601-1.9-7.7-1.9-13.4-1.9-21 0-63.1 51.6-114.8 114.8-114.8 44 0 84.1 24.9 103.3 63.1C310 86 331 76.401 354 76.401c47.8 0 86.101 38.2 86.101 86.1v11.5c32.5 7.6 57.399 38.2 57.399 74.601-.2 42.098-34.6 76.499-76.7 76.499zM258.3 382.401s-47.8 45.898-47.8 74.6c0 21 15.3 40.199 47.8 40.199s47.801-21 47.801-40.199c0-28.701-47.801-74.6-47.801-74.6zm0 95.7c-15.3 0-28.7-5.699-28.7-23 0-13.4 28.7-44 28.7-44s28.7 30.6 28.7 44c-.1 15.3-13.399 23-28.7 23z" /></symbol><symbol viewBox="0 0 489 489" id="snow"><path d="M461.95 87.8c-17.2-17.1-40.1-26.6-64.5-26.6-9.2 0-17.6 1.1-25.1 3.2C351.25 25 310.05 0 264.75 0c-50.3 0-94.8 30.1-113.2 75.7-9.6-2.4-19.7-3.7-29.9-3.7-67 0-121.5 55-121.5 122.5 0 67.1 54.5 121.7 121.5 121.7h132.7c43.7 0 80.3-30.8 89.3-71.9h53.8c50.4 0 91.4-41.1 91.4-91.5-.1-24.7-9.6-47.8-26.9-65zm-207.7 208.5h-132.6c-56 0-101.5-45.6-101.5-101.7 0-56.5 45.5-102.5 101.5-102.5 40.5 0 77.2 23.9 93.4 60.9 1.1 2.4 3.1 4.4 5.6 5.3 2.5 1 5.3.9 7.7-.2 6.9-3.1 15.9-4.8 26-4.8 39.4 0 71.4 32.1 71.4 71.5-.1 39.4-32.1 71.5-71.5 71.5zm143.1-72h-51.7c-.2-50.3-41.1-91.1-91.4-91.1-9.2 0-17.6 1.1-25.1 3.2-13.1-24.5-34-43.4-58.8-54.2 15.7-37.5 52.6-62.1 94.3-62.1 40.5 0 77.2 23.9 93.4 60.9 1.1 2.4 3.1 4.4 5.6 5.3 2.5 1 5.3.9 7.7-.2 6.9-3.1 15.9-4.8 26-4.8 39.4 0 71.4 32.1 71.4 71.5s-32 71.5-71.4 71.5zM120.05 424.2c-2.5-4.9-8.5-6.9-13.4-4.5l-15.6 7.8v-19.3c0-5.5-4.5-10-10-10s-10 4.5-10 10v19.3l-15.8-7.9c-4.9-2.5-10.9-.5-13.4 4.5-2.5 4.9-.5 10.9 4.5 13.4l12.3 6.1-12.3 6.1c-4.9 2.5-6.9 8.5-4.5 13.4 1.8 3.5 5.3 5.5 8.9 5.5 1.5 0 3-.3 4.5-1.1l15.6-7.8V479c0 5.5 4.5 10 10 10s10-4.5 10-10v-19.3l15.6 7.8c1.4.7 3 1.1 4.5 1.1 3.7 0 7.2-2 8.9-5.5 2.6-4.8.6-10.9-4.3-13.3l-12.3-6.1 12.3-6.1c4.9-2.5 6.9-8.5 4.5-13.4zM232.25 383.4c-2.4-5-8.4-7-13.4-4.5l-16.1 8v-19.4c0-5.5-4.5-10-10-10s-10 4.5-10 10v19.4l-16.1-8c-5-2.4-10.9-.4-13.4 4.5-2.4 5-.4 10.9 4.5 13.4l12.4 6.1-12.4 6.1c-5 2.4-7 8.4-4.5 13.4 1.7 3.5 5.3 5.6 9 5.6 1.5 0 3-.3 4.4-1l16.1-8v19.4c0 5.5 4.5 10 10 10s10-4.5 10-10V419l16.1 8c1.4.7 2.9 1 4.4 1 3.7 0 7.2-2 9-5.6 2.5-5 .5-11-4.5-13.4l-12.4-6.1 12.4-6.1c5-2.4 7-8.4 4.5-13.4zM343.85 424.2c-2.5-4.9-8.5-6.9-13.4-4.5l-15.6 7.8v-19.3c0-5.5-4.5-10-10-10s-10 4.5-10 10v19.3l-15.6-7.8c-4.9-2.5-10.9-.5-13.4 4.5-2.5 4.9-.5 10.9 4.5 13.4l12.1 6-12.3 6.1c-4.9 2.5-6.9 8.5-4.5 13.4 1.8 3.5 5.3 5.5 8.9 5.5 1.5 0 3-.3 4.5-1.1l15.6-7.8V479c0 5.5 4.5 10 10 10s10-4.5 10-10v-19.3l15.6 7.8c1.4.7 3 1.1 4.5 1.1 3.7 0 7.2-2 8.9-5.5 2.6-4.8.6-10.9-4.3-13.3l-12.3-6.1 12.3-6.1c4.9-2.5 6.9-8.5 4.5-13.4zM456.15 383.4c-2.4-5-8.4-7-13.4-4.5l-16.1 8v-19.4c0-5.5-4.5-10-10-10s-10 4.5-10 10v19.4l-16.1-8c-5-2.4-10.9-.4-13.4 4.5s-.4 10.9 4.5 13.4l12.4 6.1-12.4 6.1c-5 2.4-7 8.4-4.5 13.4 1.7 3.5 5.3 5.6 9 5.6 1.5 0 3-.3 4.4-1l16.1-8v19.4c0 5.5 4.5 10 10 10s10-4.5 10-10V419l16.1 8c1.4.7 2.9 1 4.4 1 3.7 0 7.2-2 9-5.6 2.4-5 .4-11-4.5-13.4l-12.4-6.1 12.4-6.1c5-2.4 7-8.4 4.5-13.4z" /></symbol><symbol viewBox="0 0 516.4 516.4" id="storm"><path d="M459.101 170.2c0-57.4-47.801-103.3-105.2-103.3-21 0-38.2 5.7-55.5 15.3-24.9-32.5-63.1-53.5-107.1-53.5C116.7 28.7 57.4 88 57.4 162.6v7.6C23 185.5 0 218 0 258.201 0 311.7 42.1 353.8 95.6 353.8h105.2L153 487.7l133.9-133.9h133.9c53.5 0 95.601-42.1 95.601-95.599C516.5 218 493.5 185.5 459.101 170.2zM200.9 413.101l28.7-78.4h-49.7l44-114.8h74.6l-28.8 76.5h47.8l-116.6 116.7zM420.8 334.7H306.101l57.399-57.4h-66.899l28.699-76.5H210.5l-49.8 133.9h-65c-42.1 0-76.5-34.4-76.5-76.5 0-36.301 24.9-66.9 59.3-74.601-1.9-7.7-1.9-13.4-1.9-21 0-63.1 51.6-114.8 114.8-114.8 44 0 84.1 24.9 103.3 63.1C310 95.6 331 86 354 86c47.8 0 86.101 38.2 86.101 86.1v11.5c32.5 7.6 57.399 38.2 57.399 74.601-.2 42.099-34.6 76.499-76.7 76.499z" /></symbol><symbol viewBox="0 0 612 612" id="sun"><path d="M76.5 286.875H19.125C8.568 286.875 0 295.443 0 306s8.568 19.125 19.125 19.125H76.5c10.557 0 19.125-8.568 19.125-19.125s-8.568-19.125-19.125-19.125zM306 95.625c10.557 0 19.125-8.568 19.125-19.125V19.125C325.125 8.568 316.557 0 306 0s-19.125 8.568-19.125 19.125V76.5c0 10.557 8.568 19.125 19.125 19.125zm184.002 53.167l40.182-40.182c7.401-7.401 7.401-19.393 0-26.794s-19.394-7.401-26.795 0l-40.182 40.182c-7.401 7.401-7.401 19.393 0 26.794 7.402 7.402 19.394 7.402 26.795 0zM141.716 443.509l-40.182 40.182c-7.401 7.401-7.401 19.393 0 26.794s19.393 7.401 26.794 0l40.182-40.182c7.401-7.401 7.401-19.393 0-26.794s-19.392-7.402-26.794 0zm-11.513-286.263c7.478 7.478 19.584 7.478 27.042 0 7.459-7.478 7.459-19.584 0-27.042L116.682 89.62c-7.478-7.478-19.584-7.478-27.043 0-7.478 7.478-7.478 19.584 0 27.043l40.564 40.583zM306 516.375c-10.557 0-19.125 8.568-19.125 19.125v57.375c0 10.557 8.568 19.125 19.125 19.125s19.125-8.568 19.125-19.125V535.5c0-10.557-8.568-19.125-19.125-19.125zm175.797-61.621c-7.478-7.478-19.584-7.478-27.043 0-7.478 7.479-7.478 19.584 0 27.043l40.564 40.564c7.478 7.478 19.584 7.478 27.043 0 7.459-7.479 7.478-19.584 0-27.043l-40.564-40.564zm111.078-167.879H535.5c-10.557 0-19.125 8.568-19.125 19.125s8.568 19.125 19.125 19.125h57.375c10.557 0 19.125-8.568 19.125-19.125s-8.568-19.125-19.125-19.125zM306 133.76c-95.128 0-172.24 77.112-172.24 172.24S210.872 478.24 306 478.24 478.24 401.128 478.24 306 401.128 133.76 306 133.76zm0 306.077c-73.918 0-133.837-59.919-133.837-133.837S232.082 172.163 306 172.163 439.837 232.082 439.837 306 379.918 439.837 306 439.837z" /></symbol></defs></svg>